<svg xmlns="http://www.w3.org/2000/svg" viewBox="0 0 512 512" id="grid">
  <linearGradient id="a" x1="-110.013" x2="357.012" y1="156.988" y2="624.013" gradientTransform="matrix(1 0 0 -1 0 514)" gradientUnits="userSpaceOnUse">
    <stop offset="0" stop-color="#332c81"></stop>
    <stop offset="1" stop-color="#e21d73"></stop>
  </linearGradient>
  <path fill="url(#a)" d="M241 62.3v122.4c0 31.1-25.2 56.3-56.3 56.3H62.3C31.2 241 6 215.8 6 184.7V62.3C6 31.2 31.2 6 62.3 6h122.4C215.8 6 241 31.2 241 62.3z"></path>
  <linearGradient id="b" x1="22.488" x2="489.512" y1="24.488" y2="491.512" gradientTransform="matrix(1 0 0 -1 0 514)" gradientUnits="userSpaceOnUse">
    <stop offset="0" stop-color="#332c81"></stop>
    <stop offset="1" stop-color="#e21d73"></stop>
  </linearGradient>
  <path fill="url(#b)" d="M241 327.3v122.4c0 31.1-25.2 56.3-56.3 56.3H62.3C31.2 506 6 480.8 6 449.7V327.3C6 296.2 31.2 271 62.3 271h122.4c31.1 0 56.3 25.2 56.3 56.3z"></path>
  <linearGradient id="c" x1="22.488" x2="489.512" y1="24.488" y2="491.512" gradientTransform="matrix(1 0 0 -1 0 514)" gradientUnits="userSpaceOnUse">
    <stop offset="0" stop-color="#332c81"></stop>
    <stop offset="1" stop-color="#e21d73"></stop>
  </linearGradient>
  <path fill="url(#c)" d="M506 62.3v122.4c0 31.1-25.2 56.3-56.3 56.3H327.3c-31.1 0-56.3-25.2-56.3-56.3V62.3C271 31.2 296.2 6 327.3 6h122.4C480.8 6 506 31.2 506 62.3z"></path>
  <linearGradient id="d" x1="154.988" x2="622.013" y1="-108.013" y2="359.012" gradientTransform="matrix(1 0 0 -1 0 514)" gradientUnits="userSpaceOnUse">
    <stop offset="0" stop-color="#332c81"></stop>
    <stop offset="1" stop-color="#e21d73"></stop>
  </linearGradient>
  <path fill="url(#d)" d="M506 327.3v122.4c0 31.1-25.2 56.3-56.3 56.3H327.3c-31.1 0-56.3-25.2-56.3-56.3V327.3c0-31.1 25.2-56.3 56.3-56.3h122.4c31.1 0 56.3 25.2 56.3 56.3z"></path>
</svg>
